<?xml version="1.0" encoding="UTF-8"?><svg id="Capa_1" xmlns="http://www.w3.org/2000/svg" viewBox="0 0 266.46 189.58"><defs><style>.cls-1{fill:#fff;}</style></defs><g><path class="cls-1" d="M42.33,117.04H12.45c-6.88,0-12.45,5.57-12.45,12.45v27.39H7.47v-27.39h0c0-2.75,2.23-4.98,4.98-4.98h29.88c2.75,0,4.98,2.23,4.98,4.98h0v27.39h7.47v-27.39c0-6.88-5.57-12.45-12.45-12.45Z"/><path class="cls-1" d="M114.54,129.07s0-.07,0-.11c0-.13-.01-.27-.02-.4,0,0,0-.01,0-.02-.01-.14-.02-.28-.04-.41,0-.03,0-.07-.01-.1-.02-.13-.03-.25-.05-.38,0-.01,0-.02,0-.03-.02-.14-.04-.27-.07-.41,0-.03-.01-.06-.02-.1-.02-.12-.05-.25-.08-.37,0-.01,0-.03,0-.04-.03-.13-.06-.27-.1-.4,0-.03-.02-.06-.02-.09-.03-.12-.07-.24-.1-.36,0-.01,0-.03-.01-.04-.04-.13-.08-.26-.13-.39,0-.03-.02-.05-.03-.08-.04-.12-.08-.23-.13-.35,0-.01-.01-.03-.02-.04-.05-.13-.1-.25-.16-.38,0-.02-.02-.04-.03-.07-.05-.11-.1-.23-.16-.34,0-.01-.01-.03-.02-.04-.06-.12-.12-.25-.18-.37,0-.02-.02-.03-.03-.05-.06-.11-.12-.23-.18-.34,0-.01-.01-.02-.02-.03-.07-.12-.14-.24-.21-.36,0-.01-.02-.02-.02-.04-.07-.11-.14-.22-.21-.33,0,0-.01-.02-.02-.03-.08-.12-.16-.23-.24-.35,0,0-.01-.01-.02-.02-.08-.11-.16-.22-.25-.33,0,0-.01-.01-.02-.02-.09-.11-.18-.23-.27-.34,0,0,0,0,0,0-.09-.11-.18-.22-.28-.32,0,0,0,0-.01-.01-.19-.22-.4-.43-.6-.63,0,0,0,0,0,0-.21-.2-.43-.4-.65-.59,0,0,0,0,0,0-.23-.19-.46-.37-.7-.54,0,0,0,0,0,0-2.05-1.49-4.57-2.37-7.3-2.37h-29.88c-6.88,0-12.45,5.57-12.45,12.45h0v14.94h0c0,6.88,5.57,12.45,12.45,12.45h0s0,0,0,0h34.86v-7.47h-34.86c-2.75,0-4.98-2.23-4.98-4.98h0v-2.49h34.86c2.73,0,5.25-.88,7.3-2.37,0,0,0,0,0,0,.24-.17,.47-.35,.7-.54,0,0,0,0,0,0,.22-.19,.44-.38,.65-.59,0,0,0,0,0,0,.21-.2,.41-.41,.6-.63,0,0,0,0,.01-.01,.09-.11,.19-.21,.28-.32,0,0,0,0,0,0,.09-.11,.18-.22,.27-.34,0,0,.01-.01,.02-.02,.08-.11,.17-.22,.25-.33,0,0,.01-.01,.02-.02,.08-.12,.16-.23,.24-.35,0,0,.01-.02,.02-.03,.07-.11,.14-.22,.21-.33,0-.01,.02-.02,.02-.04,.07-.12,.14-.24,.21-.36,0-.01,.01-.02,.02-.03,.06-.11,.12-.22,.18-.34,0-.02,.02-.03,.03-.05,.06-.12,.13-.25,.19-.37,0-.01,.01-.03,.02-.04,.05-.11,.11-.23,.16-.34,0-.02,.02-.04,.03-.07,.05-.13,.11-.25,.16-.38,0-.01,.01-.03,.02-.04,.04-.11,.09-.23,.13-.35,0-.03,.02-.05,.03-.08,.04-.13,.09-.26,.13-.39,0-.01,0-.03,.01-.04,.04-.12,.07-.24,.1-.36,0-.03,.02-.06,.02-.09,.03-.13,.07-.26,.1-.4,0-.01,0-.03,0-.04,.03-.12,.05-.24,.08-.37,0-.03,.01-.06,.02-.1,.03-.13,.05-.27,.07-.41,0-.01,0-.02,0-.03,.02-.13,.04-.25,.05-.38,0-.03,0-.07,.01-.1,.02-.14,.03-.28,.04-.41,0,0,0-.01,0-.02,0-.13,.02-.27,.02-.4,0-.04,0-.07,0-.11,0-.14,0-.28,0-.42h0c0-.14,0-.28,0-.42Zm-12.44,5.4h-34.86v-4.98h0c0-2.75,2.23-4.98,4.98-4.98h29.88c2.75,0,4.98,2.23,4.98,4.98h0c0,2.75-2.23,4.98-4.98,4.98Z"/><path class="cls-1" d="M131.98,117.04c-6.88,0-12.45,5.57-12.45,12.45h0v14.94h0c0,6.88,5.57,12.45,12.45,12.45,0,0,0,0,0,0h0s34.86,0,34.86,0v-7.47h-34.86c-2.75,0-4.98-2.23-4.98-4.98h0v-14.94h0c0-2.75,2.23-4.98,4.98-4.98h34.86v-7.47h-34.86Z"/><path class="cls-1" d="M179.3,135.51v-11h14.94v-7.47h-14.94v-12.45h-7.47v40.47h.02c.32,6.59,5.77,11.82,12.44,11.83h0s9.96,0,9.96,0v-7.47h-9.95c-2.75,0-4.99-2.23-4.99-4.98h0v-8.92Z"/><rect class="cls-1" x="199.22" y="117.04" width="7.47" height="39.84"/><rect class="cls-1" x="199.22" y="104.59" width="7.47" height="7.47"/><path class="cls-1" d="M266.46,129.49h0c0-6.88-5.57-12.45-12.45-12.45h-34.86v7.47h34.86s0,0,0,0c2.75,0,4.98,2.23,4.98,4.98h0v2.49h-34.86c-2.73,0-5.25,.88-7.3,2.37,0,0,0,0,0,0-.24,.17-.47,.35-.7,.54,0,0,0,0,0,0-.22,.19-.44,.38-.65,.59,0,0,0,0,0,0-.21,.2-.41,.41-.61,.63,0,0,0,0-.01,.01-.1,.11-.19,.21-.28,.32,0,0,0,0,0,0-.09,.11-.18,.22-.27,.34,0,0-.01,.01-.02,.02-.08,.11-.17,.22-.25,.33,0,0-.01,.01-.02,.02-.08,.12-.16,.23-.24,.35,0,0-.01,.02-.02,.03-.07,.11-.14,.22-.21,.33,0,.01-.02,.02-.02,.04-.07,.12-.14,.24-.21,.36,0,.01-.01,.02-.02,.03-.06,.11-.12,.22-.18,.34,0,.02-.02,.03-.03,.05-.06,.12-.13,.25-.19,.37,0,.01-.01,.02-.02,.04-.05,.11-.11,.23-.16,.34,0,.02-.02,.04-.03,.07-.05,.13-.11,.25-.16,.38,0,.01-.01,.03-.02,.04-.04,.12-.09,.23-.13,.35,0,.03-.02,.05-.03,.08-.04,.13-.09,.26-.13,.39,0,.01,0,.03-.01,.04-.04,.12-.07,.24-.1,.36,0,.03-.02,.06-.02,.09-.03,.13-.07,.26-.1,.4,0,.01,0,.03,0,.04-.03,.12-.05,.24-.08,.37,0,.03-.01,.06-.02,.1-.03,.13-.05,.27-.07,.41,0,.01,0,.02,0,.03-.02,.13-.04,.25-.05,.38,0,.03,0,.07-.01,.1-.02,.14-.03,.28-.04,.42,0,0,0,.01,0,.02,0,.13-.02,.27-.02,.4,0,.04,0,.07,0,.11,0,.14,0,.28,0,.42,0,0,0,0,0,0,0,.14,0,.28,0,.42,0,.04,0,.07,0,.11,0,.13,.01,.27,.02,.4,0,0,0,.01,0,.02,.01,.14,.02,.28,.04,.41,0,.03,0,.07,.01,.1,.02,.13,.03,.25,.05,.38,0,.01,0,.02,0,.03,.02,.14,.04,.27,.07,.41,0,.03,.01,.07,.02,.1,.02,.12,.05,.24,.08,.37,0,.01,0,.03,0,.04,.03,.13,.06,.27,.1,.4,0,.03,.02,.06,.02,.09,.03,.12,.07,.24,.1,.35,0,.01,0,.03,.01,.04,.04,.13,.08,.26,.13,.39,0,.03,.02,.05,.03,.08,.04,.12,.08,.23,.13,.35,0,.01,.01,.03,.02,.04,.05,.13,.1,.25,.16,.38,0,.02,.02,.04,.03,.07,.05,.11,.1,.23,.16,.34,0,.01,.01,.03,.02,.04,.06,.12,.12,.25,.19,.37,0,.02,.02,.03,.03,.05,.06,.11,.12,.23,.18,.34,0,.01,.01,.02,.02,.03,.07,.12,.14,.24,.21,.36,0,.01,.02,.02,.02,.04,.07,.11,.14,.22,.21,.33,0,0,.01,.02,.02,.03,.08,.12,.16,.23,.24,.35,0,0,.01,.01,.02,.02,.08,.11,.16,.22,.25,.33,0,0,.01,.01,.02,.02,.09,.11,.18,.23,.27,.34,0,0,0,0,0,0,.09,.11,.18,.22,.28,.32,0,0,0,0,.01,.01,.19,.22,.4,.43,.61,.63,0,0,0,0,0,0,.21,.2,.43,.4,.65,.59,0,0,0,0,0,0,.23,.19,.46,.37,.7,.54,0,0,0,0,0,0,2.05,1.49,4.57,2.37,7.3,2.37h29.88c6.88,0,12.45-5.57,12.45-12.45h0v-14.94Zm-7.47,14.94c0,2.75-2.23,4.98-4.98,4.98h-29.88c-2.75,0-4.98-2.23-4.98-4.98h0c0-2.75,2.23-4.98,4.98-4.98h34.86v4.98h0Z"/></g><path class="cls-1" d="M160.62,39.84c0-6.88-5.57-12.45-12.45-12.45h-29.88c-6.88,0-12.45,5.57-12.45,12.45h0v27.39h7.47v-27.39h0c0-2.75,2.23-4.98,4.98-4.98h0s0,0,0,0h29.88c2.75,0,4.98,2.23,4.98,4.98h0v27.39h7.47v-27.39h0Z"/><path class="cls-1" d="M162.13,7.47c4.92,0,9.54,1.92,13.02,5.39,3.48,3.48,5.39,8.1,5.39,13.02v42.87c0,4.92-1.92,9.54-5.39,13.02-3.48,3.48-8.1,5.39-13.02,5.39h-57.81c-4.92,0-9.54-1.92-13.02-5.39-3.48-3.48-5.39-8.1-5.39-13.02V25.88c0-4.92,1.92-9.54,5.39-13.02,3.48-3.48,8.1-5.39,13.02-5.39h57.81m0-7.47h-57.81c-14.29,0-25.88,11.59-25.88,25.88v42.87c0,14.29,11.59,25.88,25.88,25.88h57.81c14.29,0,25.88-11.59,25.88-25.88V25.88c0-14.29-11.59-25.88-25.88-25.88h0Z"/><g><path class="cls-1" d="M72.44,188.86c-1.09-.48-1.95-1.13-2.58-1.97-.63-.83-.98-1.77-1.06-2.8h4.85c.06,.55,.31,1,.78,1.35,.46,.34,1.02,.52,1.69,.52,.61,0,1.09-.12,1.42-.36,.33-.24,.5-.55,.5-.93,0-.46-.24-.8-.72-1.02s-1.25-.47-2.32-.73c-1.15-.27-2.1-.55-2.87-.85-.76-.3-1.43-.76-1.98-1.41-.56-.64-.83-1.51-.83-2.6,0-.92,.25-1.76,.76-2.51,.51-.76,1.25-1.35,2.24-1.79,.99-.44,2.16-.66,3.52-.66,2.01,0,3.59,.5,4.75,1.49,1.16,.99,1.82,2.32,2,3.96h-4.54c-.08-.56-.32-1-.73-1.32-.41-.32-.95-.49-1.62-.49-.57,0-1.01,.11-1.32,.33-.31,.22-.46,.52-.46,.9,0,.46,.24,.8,.73,1.03,.49,.23,1.25,.46,2.29,.69,1.19,.31,2.15,.61,2.9,.9,.75,.3,1.4,.78,1.97,1.44s.85,1.55,.88,2.65c0,.94-.26,1.78-.79,2.51-.53,.74-1.29,1.32-2.27,1.74-.99,.42-2.13,.63-3.43,.63-1.4,0-2.64-.24-3.73-.72Z"/><path class="cls-1" d="M88.73,188.58c-1.25-.67-2.24-1.63-2.96-2.87-.72-1.24-1.08-2.7-1.08-4.36s.37-3.09,1.09-4.35c.73-1.25,1.72-2.21,2.99-2.88,1.26-.67,2.68-1,4.25-1s2.98,.34,4.25,1c1.26,.67,2.26,1.63,2.98,2.88,.73,1.25,1.09,2.7,1.09,4.35s-.37,3.1-1.1,4.35c-.74,1.25-1.74,2.21-3.01,2.88-1.27,.67-2.7,1-4.26,1s-2.98-.33-4.23-1Zm6.63-4.28c.66-.69,.99-1.67,.99-2.96s-.32-2.27-.96-2.96c-.64-.69-1.43-1.03-2.37-1.03s-1.75,.34-2.38,1.02c-.63,.68-.94,1.67-.94,2.97s.31,2.27,.93,2.96c.62,.69,1.4,1.03,2.34,1.03s1.74-.34,2.4-1.03Z"/><path class="cls-1" d="M111.99,177.41h-2.64v11.94h-4.91v-11.94h-1.78v-4.08h1.78v-.46c0-1.97,.56-3.47,1.69-4.49,1.13-1.02,2.78-1.54,4.96-1.54,.36,0,.63,.01,.8,.03v4.16c-.94-.06-1.6,.08-1.98,.4-.38,.33-.57,.91-.57,1.75v.14h2.64v4.08Z"/><path class="cls-1" d="M123.21,185.19v4.16h-2.5c-1.78,0-3.17-.44-4.17-1.31-.99-.87-1.49-2.29-1.49-4.26v-6.37h-1.95v-4.08h1.95v-3.9h4.91v3.9h3.21v4.08h-3.21v6.43c0,.48,.11,.82,.34,1.03,.23,.21,.61,.32,1.15,.32h1.75Z"/><path class="cls-1" d="M148.93,173.33l-4.33,16.02h-5.42l-2.53-10.39-2.61,10.39h-5.4l-4.36-16.02h4.91l2.27,11.45,2.7-11.45h5.2l2.73,11.4,2.24-11.4h4.62Z"/><path class="cls-1" d="M150.75,176.98c.62-1.24,1.47-2.2,2.54-2.87,1.07-.67,2.27-1,3.59-1,1.13,0,2.12,.23,2.97,.69,.85,.46,1.5,1.06,1.97,1.81v-2.27h4.91v16.02h-4.91v-2.27c-.48,.75-1.15,1.35-2,1.81-.85,.46-1.84,.69-2.97,.69-1.3,0-2.49-.34-3.56-1.02-1.07-.68-1.92-1.65-2.54-2.9-.63-1.25-.94-2.7-.94-4.35s.31-3.09,.94-4.33Zm10.04,1.46c-.68-.71-1.5-1.06-2.48-1.06s-1.81,.35-2.48,1.05c-.68,.7-1.02,1.66-1.02,2.88s.34,2.19,1.02,2.91c.68,.72,1.5,1.08,2.48,1.08s1.8-.35,2.48-1.06c.68-.71,1.02-1.67,1.02-2.9s-.34-2.19-1.02-2.9Z"/><path class="cls-1" d="M177.34,173.92c.86-.51,1.82-.76,2.87-.76v5.2h-1.35c-1.22,0-2.14,.26-2.76,.79s-.92,1.45-.92,2.77v7.43h-4.91v-16.02h4.91v2.67c.57-.88,1.29-1.57,2.15-2.08Z"/><path class="cls-1" d="M197.58,182.52h-11.11c.08,.99,.4,1.76,.96,2.28s1.26,.79,2.08,.79c1.22,0,2.08-.52,2.56-1.55h5.22c-.27,1.05-.75,2-1.45,2.84-.7,.84-1.57,1.5-2.63,1.98s-2.23,.72-3.53,.72c-1.57,0-2.96-.33-4.19-1-1.22-.67-2.18-1.63-2.87-2.87-.69-1.24-1.03-2.7-1.03-4.36s.34-3.12,1.02-4.36c.68-1.24,1.63-2.2,2.85-2.87,1.22-.67,2.63-1,4.22-1s2.93,.33,4.14,.98c1.2,.65,2.15,1.58,2.82,2.78,.68,1.21,1.02,2.61,1.02,4.22,0,.46-.03,.94-.09,1.44Zm-4.94-2.73c0-.84-.29-1.51-.86-2.01-.57-.5-1.29-.75-2.15-.75s-1.52,.24-2.08,.72c-.56,.48-.91,1.16-1.04,2.04h6.14Z"/></g></svg>